<svg xmlns="http://www.w3.org/2000/svg" xmlns:xlink="http://www.w3.org/1999/xlink" width="284.738" height="284.738" viewBox="0 0 75.337 75.337"><defs><linearGradient xlink:href="#a" id="c" x1="-164.264" x2="-114.498" y1="343.869" y2="340.876" gradientTransform="translate(85.687 .748)" gradientUnits="userSpaceOnUse"/><linearGradient id="a"><stop offset="0" style="stop-color:#0b59b0;stop-opacity:1"/><stop offset=".244" style="stop-color:#1075d7;stop-opacity:1"/><stop offset="1" style="stop-color:#9797f3;stop-opacity:1"/></linearGradient><linearGradient xlink:href="#b" id="d" x1="-163.515" x2="-192.701" y1="339.379" y2="317.677" gradientTransform="translate(85.687 .748)" gradientUnits="userSpaceOnUse"/><linearGradient id="b"><stop offset="0" style="stop-color:#127adc;stop-opacity:1"/><stop offset="1" style="stop-color:#9096f3;stop-opacity:1"/></linearGradient></defs><path d="M-71.006 296.375c-19.902 0-32.278 31.25-37.364 47.48l-.015.048a7.5 7.5 0 0 0-.232 1.126 7.5 7.5 0 0 0-.053 1.167 7.5 7.5 0 0 0 .13 1.161 7.5 7.5 0 0 0 .31 1.126 7.5 7.5 0 0 0 .481 1.064 7.5 7.5 0 0 0 .643.976 7.5 7.5 0 0 0 .787.863 7.5 7.5 0 0 0 .912.73 7.5 7.5 0 0 0 1.016.577 7.5 7.5 0 0 0 1.04.396 7.5 7.5 0 0 0 1.087.237 7.5 7.5 0 0 0 1.11.071 7.5 7.5 0 0 0 1.187-.107 7.5 7.5 0 0 0 1.155-.295 7.5 7.5 0 0 0 1.093-.476 7.5 7.5 0 0 0 1.002-.644 7.5 7.5 0 0 0 .888-.796 7.5 7.5 0 0 0 .748-.927 8 8 0 0 0 .378-.624l.013.01c1.649-3.144 4.589-6.904 9.302-6.85q.31-.008.608-.008c6.134.006 7.691 2.777 13.774 2.658 6.084.119 7.64-2.652 13.775-2.658q.297 0 .608.008c4.713-.054 7.653 3.706 9.301 6.85l.014-.01a8 8 0 0 0 .377.624 7.5 7.5 0 0 0 .75.927 7.5 7.5 0 0 0 .886.796 7.5 7.5 0 0 0 1.003.644 7.5 7.5 0 0 0 1.093.476 7.5 7.5 0 0 0 1.154.295 7.5 7.5 0 0 0 1.188.107 7.5 7.5 0 0 0 1.11-.071 7.5 7.5 0 0 0 1.087-.237 7.5 7.5 0 0 0 1.04-.396 7.5 7.5 0 0 0 1.015-.578 7.5 7.5 0 0 0 .913-.729 7.5 7.5 0 0 0 .787-.863 7.5 7.5 0 0 0 .642-.976 7.5 7.5 0 0 0 .482-1.064 7.5 7.5 0 0 0 .31-1.126 7.5 7.5 0 0 0 .13-1.16 7.5 7.5 0 0 0-.054-1.168 7.5 7.5 0 0 0-.231-1.126l-.015-.048c-5.086-16.23-17.462-47.48-37.365-47.48m0 18.267a13.538 10.844 0 0 1 12.258 6.23 13.538 10.844 0 0 1-6.508 14.418 13.538 10.844 0 0 1-5.75 1.015 13.538 10.844 0 0 1-5.75-1.015 13.538 10.844 0 0 1-6.508-14.419 13.538 10.844 0 0 1 12.258-6.23" style="fill:url(#c);fill-opacity:1;stroke-width:0;stroke-linecap:round;stroke-linejoin:round;stroke-dashoffset:21;paint-order:fill markers stroke" transform="translate(108.674 -287.218)"/><path d="M-71.006 296.376c-19.902 0-32.278 31.248-37.364 47.48l-.015.047a7.5 7.5 0 0 0-.232 1.126 7.5 7.5 0 0 0-.053 1.167 7.5 7.5 0 0 0 .13 1.161 7.5 7.5 0 0 0 .31 1.126 7.5 7.5 0 0 0 .481 1.064 7.5 7.5 0 0 0 .643.976 7.5 7.5 0 0 0 .787.863 7.5 7.5 0 0 0 .912.73 7.5 7.5 0 0 0 1.016.577 7.5 7.5 0 0 0 1.04.396 7.5 7.5 0 0 0 1.087.237 7.5 7.5 0 0 0 1.11.071 7.5 7.5 0 0 0 1.187-.107 7.5 7.5 0 0 0 1.155-.295 7.5 7.5 0 0 0 1.093-.476 7.5 7.5 0 0 0 1.002-.644 7.5 7.5 0 0 0 .887-.796 7.5 7.5 0 0 0 .75-.927 8 8 0 0 0 .377-.624l.013.01c1.649-3.144 4.589-6.904 9.302-6.85q.31-.008.608-.008c6.134.006 7.691 2.777 13.774 2.658 4.18.081 6.222-1.2 9.08-2.013 0 0-3.903.832-8.345-.157l-.129-.03c-9.885-2.179-11.497-11.223-11.497-11.223l-.005-.02a13.538 10.844 0 0 1-1.362-11.024 13.538 10.844 0 0 1 1.278-1.708c1.724-8.18 6.46-16.71 13.04-22.671a19 19 0 0 0-2.06-.117z" style="fill:url(#d);fill-opacity:1;stroke-width:0;stroke-linecap:round;stroke-linejoin:round;stroke-dashoffset:21;paint-order:fill markers stroke" transform="translate(108.674 -287.218)"/><path fill="none" d="M-76.24 327.708a6.2 6.2 0 0 0 2.594 2.28 6.22 6.22 0 0 0 7.879-2.28" style="fill:#000;fill-opacity:0;stroke:#2179da;stroke-width:2.11667;stroke-linecap:round;stroke-linejoin:round;stroke-miterlimit:4;stroke-dasharray:none;stroke-dashoffset:21;stroke-opacity:1;paint-order:fill markers stroke" transform="translate(108.674 -287.218)"/></svg>